<?xml version="1.0" encoding="utf-8"?>
<!-- Generator: Adobe Illustrator 22.1.0, SVG Export Plug-In . SVG Version: 6.00 Build 0)  -->
<svg version="1.1" id="Calque_1" xmlns="http://www.w3.org/2000/svg" xmlns:xlink="http://www.w3.org/1999/xlink" x="0px" y="0px"
	 viewBox="0 0 349.8 241.2" style="enable-background:new 0 0 349.8 241.2;" xml:space="preserve">
<style type="text/css">
	.st0{fill:#EF7A73;}
	.st1{fill:#FFFFFF;}
	.st2{fill:#68A0D6;}
	.st3{fill:#2967B0;}
</style>
<g>
	<path class="st0" d="M174.5,0c-53.5,0-97,43.5-97,97s43.5,97,97,97c53.5,0,97-43.5,97-97S228,0,174.5,0z"/>
	<path class="st1" d="M156.5,140.1c-0.1,1-1,1.7-1.9,1.6c-3.9-0.4-7.9-1-11.6-1.9c-0.1-1.2-0.3-2.4-0.5-3.7
		c3.5,0.9,7.7,1.6,12.5,2.1C155.9,138.3,156.6,139.1,156.5,140.1z"/>
	<path class="st1" d="M190.3,137.2c-1,1.4-1.8,2.7-2.6,3.9c-1.7,0.2-3.5,0.5-5.2,0.6c-0.1,0-0.1,0-0.2,0c-0.9,0-1.7-0.7-1.7-1.6
		c-0.1-1,0.6-1.8,1.6-1.9C185.2,138,187.9,137.6,190.3,137.2z"/>
	<path class="st1" d="M139,115.2L139,115.2c-1.3-4.2-6-13.3-7.6-17.7c-1.3-3.8-2.9-11.7-4.4-15.5c-1.5-3.6-7.4-13.5-7.4-13.5
		c-1.7-3.2-0.6-7.2,2.7-9c3-1.6,6.8-0.7,8.7,2.2c0,0,6.4,9.4,8.2,12.7c2.2,3.9,6.9,14.6,7.9,16c0.7,1,3.4,2,4.6,1.8
		c1.6-0.2,4.4-2,5.5-3.1c2.1-2.2,5.8-7.3,7-10.1c4.9-11.6,11.9-48.8,11.9-48.8c0.4-1.7,1.5-3.2,3.1-4.1c1-0.6,2.2-0.9,3.3-0.9
		c2.3,0,4.5,1.2,5.7,3.3c0.8,1.4,1.1,3,0.8,4.6l-8.5,41.7c-0.2,1,0.5,1.9,1.4,2.1c0.1,0,0.2,0,0.3,0c0.6,0,1.2-0.3,1.5-0.9
		l22.6-40.7l0.1-0.1c1.8-3.2,5.8-4.3,9-2.5c3.1,1.8,4.3,5.7,2.6,8.8l-21.7,41.2c-0.3,0.6-0.2,1.2,0.2,1.7c0.3,0.4,0.8,0.6,1.2,0.6
		c0.4,0,0.8-0.2,1.1-0.5l28.1-29c2.6-2.6,6.8-2.7,9.4-0.1c2.5,2.5,2.7,6.5,0.3,9.2l-29.3,32.7c-0.7,0.8-0.8,1.9-0.4,2.8
		c0.4,0.9,1.3,1.4,2.2,1.4c0.2,0,0.4,0,0.6-0.1l31.8-8.5c3.5-0.9,7.2,1.2,8.1,4.7c0.9,3.4-1,6.8-4.3,8c0,0-28.1,7.4-36.3,12.3
		c-0.4,0.2-0.8,0.5-1.2,0.8c-0.3-0.2,0.4,0.2,0,0l0,0l-1.7,1.2c-1,0.8-1.9,1.5-2.9,2.5l-2.2,2l0,0c-3.1,3.1-6.4,6.7-9.1,10.2
		c-0.7,0.9-1.4,1.8-2,2.7c-2.5,0.4-5.2,0.8-8.1,1.1c-1,0.1-1.7,1-1.6,1.9c0.1,0.9,0.9,1.6,1.7,1.6c0.1,0,0.1,0,0.2,0
		c1.7-0.2,3.5-0.4,5.2-0.6c-0.5,0.9-1,1.7-1.3,2.5c0,0,0,0,0,0.1c-1.1,2.4-1.5,10.5-1.5,10.5c-0.5,3.3-3.3,5.7-6.6,5.7l-27.2,0
		c-3.3,0-6.1-2.4-6.6-5.7c0,0-0.6-5.2-1.4-12c-0.1-0.8-0.2-1.6-0.3-2.4c3.7,0.8,7.7,1.5,11.6,1.9c1,0.1,1.8-0.6,1.9-1.6
		c0.1-1-0.6-1.8-1.6-1.9c-4.8-0.5-8.9-1.2-12.5-2.1c-0.1-0.8-0.2-1.6-0.3-2.4c-0.5-3.7-1-7.4-1.5-10.6c0.1,0,0.2,0,0.2-0.1l-0.2,0.1
		"/>
	<polygon class="st2" points="185.5,113.3 183,109 178.5,106.7 182.9,104.2 185.1,99.8 187.7,104.1 192.1,106.4 187.8,108.9 	"/>
	<polygon class="st2" points="190.3,125.1 188.5,121.8 185.2,120 188.5,118.2 190.3,114.9 192.1,118.2 195.4,120 192.1,121.8 	"/>
	<polygon class="st2" points="179.4,128.2 178.3,125.9 176.2,124.6 178.4,123.5 179.7,121.4 180.8,123.7 183,125 180.7,126 	"/>
	<g>
		<path class="st3" d="M122.4,128.6c0,6.2,6.9,11.1,20,14c0.3,0.1,0.5,0.1,0.8,0.2c3.5,0.8,7.2,1.3,11.1,1.8c0.2,0,0.3,0,0.4,0
			c2.2,0,4-1.6,4.2-3.8c0.1-1.1-0.2-2.2-0.9-3.1v0c-0.7-0.9-1.7-1.4-2.8-1.5c-4.4-0.5-8.5-1.2-12.1-2c-0.3-0.1-0.6-0.1-0.9-0.2
			c-8.3-2.1-10.9-4.6-11.3-5.3c0.3-0.7,2.7-2.8,9.7-4.9l0.2-0.1l0-0.2c-0.1-0.7-0.2-1.4-0.3-2l0,0l0-0.2c-0.3-1.4-0.5-2.5-0.7-3.4
			l-0.1-0.2l0,0c-0.1-0.4-0.2-0.8-0.3-1.2c-0.1-0.2-0.1-0.5-0.2-0.8l-0.1-0.2l-0.3,0.1C125.2,119.2,122.4,124.7,122.4,128.6z"/>
		<path class="st3" d="M182.4,144.7c0.1,0,0.2,0,0.3,0l0.1,0c1.3-0.1,2.5-0.3,3.6-0.4c0.5-0.1,1.1-0.1,1.6-0.2
			c10.3-1.5,27.6-5.5,27.6-15.4c0-3.8-2.5-7.1-7.5-9.7l-0.1-0.1l-0.1,0.1c-0.6,0.4-1.3,0.9-1.9,1.4l0,0l-0.1,0.1
			c-1,0.8-2,1.6-2.9,2.5c0,0,0,0,0,0l-0.2,0.2l0,0c-0.5,0.5-1,1-1.6,1.5l-0.2,0.2l1.2,0.5c3.6,1.5,4.8,2.8,5,3.2
			c-0.4,1-4.4,4-15,6.1c-0.8,0.2-1.6,0.3-2.4,0.4c-2.5,0.4-5.1,0.8-7.9,1c-2.3,0.2-4,2.3-3.8,4.6
			C178.4,143.1,180.2,144.7,182.4,144.7z"/>
		<path class="st3" d="M121.8,119c2-1.9,4.4-2.7,4.6-2.8c1.1-0.3,1.7-1.5,1.3-2.6c-0.3-1.1-1.5-1.7-2.6-1.3
			c-0.4,0.1-9.8,3.2-10.1,12.1c0,1.1,0.9,2.1,2,2.1c0,0,0,0,0.1,0c1.1,0,2-0.9,2-2c0-1.6,0.5-2.9,1.3-4L121.8,119z"/>
		<path class="st3" d="M205.6,143.6c-1.1,0.1-2,1-1.9,2.1c0.1,1.1,1,1.9,2,1.9c0,0,0.1,0,0.1,0c0.4,0,9.7-0.6,13.5-7.3
			c0.6-1,0.2-2.2-0.8-2.8c-1-0.6-2.2-0.2-2.8,0.8C213.1,143.1,205.8,143.6,205.6,143.6z"/>
		<path class="st3" d="M15.2,223.3c0.7,0,1.3-0.1,1.6-0.2c0.8-0.3,1.2-1.1,1.2-2.6c0-1.3-0.3-2.2-0.8-2.4c-0.3-0.2-0.6-0.3-0.8-0.3
			c-0.2,0-0.6,0-1.1,0H2.9c-1.1,0-1.9,0.2-2.3,0.6c-0.4,0.4-0.6,1.1-0.6,2.2V238c0,0.7,0.1,1.3,0.2,1.6c0.3,0.8,1.1,1.2,2.6,1.2
			h12.4c0.7,0,1.3-0.1,1.6-0.2c0.8-0.3,1.2-1.1,1.2-2.6c0-1.3-0.3-2.2-0.8-2.4c-0.3-0.2-0.6-0.3-0.8-0.3c-0.2,0-0.6,0-1.1,0H5.6
			v-3.2h6.1c0.7,0,1.3-0.1,1.6-0.2c0.8-0.3,1.2-1.1,1.2-2.6c0-1.3-0.3-2.2-0.8-2.4c-0.3-0.2-0.6-0.3-0.8-0.3c-0.2,0-0.6,0-1.1,0H5.6
			v-3.2H15.2z"/>
		<path class="st3" d="M40.7,218.4c-0.2-0.1-0.4-0.3-0.8-0.4c-0.4-0.1-0.8-0.2-1.4-0.2c-0.6,0-1.1,0.1-1.5,0.2
			c-0.4,0.1-0.7,0.4-0.9,0.7c-0.2,0.4-0.3,0.9-0.3,1.7v10.6c-1.5-1.9-4.4-5.9-8.8-11.9c-0.4-0.5-0.6-0.8-0.7-0.8
			c-0.1-0.1-0.4-0.3-0.8-0.4c-0.4-0.1-0.9-0.2-1.5-0.2s-1.1,0.1-1.5,0.2c-0.4,0.1-0.7,0.4-0.9,0.7c-0.2,0.4-0.3,0.9-0.3,1.7V238
			c0,0.5,0,0.8,0,1.1c0,0.3,0.1,0.5,0.3,0.8c0.3,0.6,1.1,0.8,2.4,0.8c1.3,0,2.2-0.3,2.4-0.8c0.2-0.3,0.3-0.6,0.3-0.8
			c0-0.2,0-0.6,0-1.1v-10.3c1.5,1.9,4.6,6,9.3,12.3c0.2,0.3,0.5,0.5,0.8,0.6c0.3,0.1,0.9,0.2,1.7,0.2c1.3,0,2.2-0.3,2.4-0.8
			c0.2-0.3,0.3-0.6,0.3-0.8c0-0.2,0-0.6,0-1.1v-17.4c0-0.7-0.1-1.3-0.2-1.6C41,218.7,40.9,218.5,40.7,218.4z"/>
		<path class="st3" d="M73.9,218.3c-0.2-0.1-0.5-0.3-0.8-0.4c-0.4-0.1-0.8-0.2-1.4-0.2s-1.1,0.1-1.5,0.2c-0.4,0.1-0.7,0.4-0.9,0.7
			c-0.2,0.3-0.3,0.9-0.3,1.7v9.6c0,1.5-0.4,2.8-1.1,3.9c-0.8,1.1-1.9,1.7-3.4,1.7c-0.9,0-1.6-0.2-2.2-0.5c-0.6-0.4-1.1-0.8-1.4-1.4
			c-0.6-1.1-0.9-2.4-0.9-3.6v-9.4c0-0.8-0.1-1.5-0.4-2c-0.1-0.3-0.4-0.5-0.8-0.7c-0.4-0.1-0.9-0.2-1.6-0.2c-0.7,0-1.2,0.1-1.6,0.2
			c-0.4,0.1-0.7,0.3-0.8,0.7c-0.2,0.3-0.3,0.6-0.3,0.8c0,0.2,0,0.6,0,1.1v9.4c0,2.8,0.8,5.3,2.5,7.5c0.8,1.1,1.9,2,3.2,2.6
			c1.3,0.7,2.8,1,4.4,1c1.6,0,3.1-0.3,4.4-1c1.3-0.7,2.4-1.5,3.2-2.6c1.7-2.3,2.6-4.8,2.6-7.5v-9.5c0-0.7-0.1-1.3-0.2-1.6
			C74.2,218.7,74,218.4,73.9,218.3z"/>
		<path class="st3" d="M97.7,218.4c-0.2-0.1-0.4-0.3-0.8-0.4c-0.4-0.1-0.8-0.2-1.4-0.2s-1.1,0.1-1.5,0.2c-0.4,0.1-0.7,0.4-0.9,0.7
			c-0.2,0.4-0.3,0.9-0.3,1.7v10.6c-1.5-1.9-4.4-5.9-8.8-11.9c-0.4-0.5-0.6-0.8-0.7-0.8c-0.1-0.1-0.4-0.3-0.8-0.4
			c-0.4-0.1-0.9-0.2-1.5-0.2c-0.6,0-1.1,0.1-1.5,0.2c-0.4,0.1-0.7,0.4-0.9,0.7c-0.2,0.4-0.3,0.9-0.3,1.7V238c0,0.5,0,0.8,0,1.1
			c0,0.3,0.1,0.5,0.3,0.8c0.3,0.6,1.1,0.8,2.4,0.8c1.3,0,2.2-0.3,2.4-0.8c0.2-0.3,0.3-0.6,0.3-0.8c0-0.2,0-0.6,0-1.1v-10.3
			c1.5,1.9,4.6,6,9.3,12.3c0.2,0.3,0.5,0.5,0.8,0.6c0.3,0.1,0.9,0.2,1.7,0.2c1.3,0,2.2-0.3,2.4-0.8c0.2-0.3,0.3-0.6,0.3-0.8
			c0-0.2,0-0.6,0-1.1v-17.4c0-0.7-0.1-1.3-0.2-1.6C98,218.7,97.8,218.5,97.7,218.4z"/>
		<path class="st3" d="M131.6,218c-0.3-0.2-0.8-0.2-1.5-0.2h-17.4c-0.7,0-1.2,0.1-1.6,0.3c-0.3,0.1-0.4,0.4-0.5,0.7
			c-0.1,0.3-0.2,0.8-0.2,1.3c0,0.5,0.1,1,0.2,1.3c0.1,0.3,0.3,0.6,0.6,0.7c0.3,0.2,0.8,0.2,1.5,0.2h6v15.7c0,0.5,0,0.8,0,1.1
			c0,0.2,0.1,0.5,0.3,0.8c0.2,0.3,0.4,0.5,0.8,0.6c0.4,0.1,0.9,0.2,1.6,0.2c0.6,0,1.2-0.1,1.6-0.2c0.4-0.1,0.7-0.3,0.8-0.6
			c0.2-0.3,0.3-0.6,0.3-0.8c0-0.2,0-0.6,0-1.1v-15.8h6c0.7,0,1.2-0.1,1.6-0.3c0.3-0.1,0.4-0.3,0.5-0.7c0.1-0.3,0.2-0.8,0.2-1.3
			c0-0.5-0.1-1-0.2-1.3C132.1,218.4,131.9,218.2,131.6,218z"/>
		<path class="st3" d="M144.2,217.5c-1.4,0-2.8,0.3-4.2,0.9c-1.4,0.6-2.6,1.4-3.6,2.4c-1,1-1.9,2.3-2.5,3.8
			c-0.6,1.5-0.9,3.1-0.9,4.9c0,3.2,1.1,5.9,3.3,8.2c2.2,2.3,4.9,3.4,8.1,3.4c3.2,0,5.9-1.2,8-3.5c2.2-2.3,3.3-5.2,3.3-8.5
			c0-3.3-1.1-6.1-3.4-8.3C150,218.6,147.3,217.5,144.2,217.5z M148.3,233.9c-1.2,1.1-2.5,1.7-4,1.7c-1.5,0-2.8-0.6-4-1.7
			c-1.2-1.2-1.8-2.7-1.8-4.5c0-1.9,0.6-3.4,1.8-4.5c1.2-1.2,2.5-1.7,4-1.7c1.5,0,2.8,0.6,4,1.7c1.2,1.2,1.8,2.7,1.8,4.6
			C150.1,231.3,149.5,232.8,148.3,233.9z"/>
		<path class="st3" d="M178.6,218.3c-0.2-0.1-0.5-0.3-0.8-0.4c-0.4-0.1-0.8-0.2-1.4-0.2s-1.1,0.1-1.5,0.2c-0.4,0.1-0.7,0.4-0.9,0.7
			c-0.2,0.3-0.3,0.9-0.3,1.7v9.6c0,1.5-0.4,2.8-1.1,3.9c-0.8,1.1-1.9,1.7-3.4,1.7c-0.9,0-1.6-0.2-2.2-0.5c-0.6-0.4-1.1-0.8-1.4-1.4
			c-0.6-1.1-0.9-2.4-0.9-3.6v-9.4c0-0.8-0.1-1.5-0.4-2c-0.1-0.3-0.4-0.5-0.8-0.7c-0.4-0.1-0.9-0.2-1.6-0.2c-0.7,0-1.2,0.1-1.6,0.2
			c-0.4,0.1-0.7,0.3-0.8,0.7c-0.2,0.3-0.3,0.6-0.3,0.8c0,0.2,0,0.6,0,1.1v9.4c0,2.8,0.8,5.3,2.5,7.5c0.8,1.1,1.9,2,3.2,2.6
			c1.3,0.7,2.8,1,4.4,1c1.6,0,3.1-0.3,4.4-1c1.3-0.7,2.4-1.5,3.2-2.6c1.7-2.3,2.6-4.8,2.6-7.5v-9.5c0-0.7-0.1-1.3-0.2-1.6
			C178.9,218.7,178.8,218.4,178.6,218.3z"/>
		<path class="st3" d="M198.4,232c1.6-1.5,2.4-3.5,2.4-5.8c0-1.4-0.3-2.6-0.8-3.7c-0.5-1.1-1.2-2-2.1-2.6c-1.7-1.3-3.5-2-5.4-2h-6.8
			c-1.3,0-2.2,0.3-2.4,0.8c-0.2,0.3-0.3,0.6-0.3,0.8c0,0.2,0,0.6,0,1.1V238c0,0.7,0.1,1.3,0.2,1.6c0.3,0.8,1.1,1.2,2.6,1.2
			c1.3,0,2.2-0.3,2.4-0.8c0.2-0.3,0.3-0.6,0.3-0.8c0-0.2,0-0.6,0-1.1v-3.5h4l1-0.1c1.4,3.4,2.2,5.3,2.4,5.7c0.1,0.2,0.3,0.4,0.6,0.6
			c0.3,0.2,0.6,0.3,1,0.3c0.4,0,0.9-0.1,1.6-0.4c1.3-0.5,1.9-1.2,1.9-2c0-0.3-0.2-0.9-0.5-1.6C199.5,234.7,198.8,233.1,198.4,232z
			 M194.3,228.2c-0.6,0.5-1.2,0.7-1.8,0.7h-4v-5.6h4c0.6,0,1.3,0.2,1.9,0.7c0.6,0.5,0.9,1.2,0.9,2.1
			C195.2,227.1,194.9,227.7,194.3,228.2z"/>
		<path class="st3" d="M221.7,217.8l-5.8,0c-1.3,0-2.2,0.3-2.4,0.8c-0.2,0.3-0.3,0.6-0.3,0.8c0,0.2,0,0.6,0,1.1V238
			c0,0.9,0.1,1.6,0.4,2c0.3,0.5,1.1,0.8,2.4,0.8h5.7c3.2,0,5.9-1.1,8.2-3.4c2.2-2.3,3.4-5,3.4-8.2c0-3.2-1.1-5.9-3.4-8.1
			C227.4,218.9,224.7,217.8,221.7,217.8z M225.8,233.5c-1.2,1.1-2.6,1.7-4.1,1.7h-3v-11.9h3c1.6,0,3,0.6,4.2,1.7
			c1.2,1.1,1.8,2.6,1.8,4.2C227.6,231,227,232.4,225.8,233.5z"/>
		<path class="st3" d="M251.6,223.3c0.7,0,1.3-0.1,1.6-0.2c0.8-0.3,1.2-1.1,1.2-2.6c0-1.3-0.3-2.2-0.8-2.4c-0.3-0.2-0.6-0.3-0.8-0.3
			c-0.2,0-0.6,0-1.1,0h-12.4c-1.1,0-1.9,0.2-2.3,0.6c-0.4,0.4-0.6,1.1-0.6,2.2V238c0,0.7,0.1,1.3,0.2,1.6c0.3,0.8,1.1,1.2,2.6,1.2
			h12.4c0.7,0,1.3-0.1,1.6-0.2c0.8-0.3,1.2-1.1,1.2-2.6c0-1.3-0.3-2.2-0.8-2.4c-0.3-0.2-0.6-0.3-0.8-0.3c-0.2,0-0.6,0-1.1,0h-9.7
			v-3.2h6.1c0.7,0,1.3-0.1,1.6-0.2c0.8-0.3,1.2-1.1,1.2-2.6c0-1.3-0.3-2.2-0.8-2.4c-0.3-0.2-0.6-0.3-0.8-0.3c-0.2,0-0.6,0-1.1,0
			h-6.2v-3.2H251.6z"/>
		<path class="st3" d="M291.2,218.7c-0.3-0.6-1.1-0.8-2.4-0.8c-1.3,0-2.2,0.3-2.5,0.8c-1.2,1.5-3.6,4.6-7.1,9.3l-7.1-9.3l-0.2-0.2
			c-0.1-0.1-0.4-0.3-0.8-0.4c-0.4-0.1-0.9-0.2-1.5-0.2c-1.3,0-2.1,0.3-2.4,0.8c-0.2,0.3-0.3,0.6-0.3,0.8c0,0.2,0,0.6,0,1.1V238
			c0,0.5,0,0.9,0,1.1c0,0.3,0.1,0.5,0.3,0.8c0.3,0.6,1.1,0.8,2.4,0.8c1.3,0,2.1-0.3,2.4-0.8c0.2-0.3,0.3-0.6,0.3-0.8
			c0-0.2,0-0.6,0-1.1v-10.6c0.1,0.1,0.8,1,2,2.7c1.2,1.7,2.1,2.8,2.5,3.3l0.3,0.3c0.2,0.2,0.4,0.4,0.8,0.6c0.4,0.2,0.8,0.3,1.3,0.3
			c0.5,0,0.9-0.1,1.3-0.4c0.4-0.2,0.7-0.4,0.8-0.6c0.1-0.1,0.3-0.4,0.6-0.7c0.3-0.4,0.9-1.2,1.9-2.6c1-1.4,1.8-2.4,2.3-3.1V238
			c0,0.7,0.1,1.3,0.2,1.6c0.1,0.3,0.3,0.5,0.4,0.6c0.2,0.1,0.5,0.3,0.8,0.4c0.4,0.1,0.8,0.2,1.4,0.2c0.6,0,1.1-0.1,1.5-0.2
			c0.8-0.3,1.2-1.1,1.2-2.5v-17.4c0-0.5,0-0.8,0-1.1C291.5,219.3,291.4,219,291.2,218.7z"/>
		<path class="st3" d="M308.5,219.4c-0.5-1.1-1.4-1.6-2.5-1.6c-0.5,0-1,0.1-1.5,0.4c-0.5,0.3-0.8,0.7-1.1,1.2l-8.5,17.5
			c-0.4,0.7-0.5,1.2-0.5,1.6c0,0.8,0.6,1.4,1.8,2c0.7,0.4,1.3,0.5,1.7,0.5c0.4,0,0.7-0.1,1-0.3c0.3-0.2,0.4-0.4,0.6-0.6
			c0.1-0.2,0.3-0.5,0.5-0.9l1.6-3.4h8.7l1.6,3.4c0.2,0.4,0.4,0.7,0.5,0.9c0.1,0.2,0.3,0.4,0.6,0.6c0.3,0.2,0.6,0.3,1,0.3
			c0.4,0,1-0.2,1.7-0.5c1.2-0.6,1.8-1.3,1.8-2c0-0.4-0.2-0.9-0.5-1.6L308.5,219.4z M303.9,231.2l2.1-4.3l2.1,4.3H303.9z"/>
		<path class="st3" d="M323.3,217.8c-1.3,0-2.2,0.3-2.4,0.8c-0.2,0.3-0.3,0.6-0.3,0.8c0,0.2,0,0.6,0,1.1V238c0,0.7,0.1,1.3,0.2,1.6
			c0.3,0.8,1.1,1.2,2.6,1.2c1.3,0,2.2-0.3,2.4-0.8c0.2-0.3,0.3-0.6,0.3-0.8c0-0.2,0-0.6,0-1.1v-17.4c0-0.7-0.1-1.3-0.2-1.6
			C325.6,218.2,324.7,217.8,323.3,217.8z"/>
		<path class="st3" d="M349.7,219c-0.1-0.3-0.2-0.5-0.4-0.7c-0.2-0.1-0.4-0.3-0.8-0.4c-0.4-0.1-0.8-0.2-1.4-0.2s-1.1,0.1-1.5,0.2
			c-0.4,0.1-0.7,0.4-0.9,0.7c-0.2,0.4-0.3,0.9-0.3,1.7v10.6c-1.5-1.9-4.4-5.9-8.8-11.9c-0.4-0.5-0.6-0.8-0.7-0.8
			c-0.1-0.1-0.4-0.3-0.8-0.4c-0.4-0.1-0.9-0.2-1.5-0.2s-1.1,0.1-1.5,0.2c-0.4,0.1-0.7,0.4-0.9,0.7c-0.2,0.4-0.3,0.9-0.3,1.7V238
			c0,0.5,0,0.8,0,1.1c0,0.3,0.1,0.5,0.3,0.8c0.3,0.6,1.1,0.8,2.4,0.8c1.3,0,2.2-0.3,2.4-0.8c0.2-0.3,0.3-0.6,0.3-0.8
			c0-0.2,0-0.6,0-1.1v-10.3c1.5,1.9,4.6,6,9.3,12.3c0.2,0.3,0.5,0.5,0.8,0.6c0.3,0.1,0.9,0.2,1.7,0.2c1.3,0,2.2-0.3,2.4-0.8
			c0.2-0.3,0.3-0.6,0.3-0.8c0-0.2,0-0.6,0-1.1v-17.4C349.8,219.9,349.8,219.4,349.7,219z"/>
	</g>
</g>
</svg>
